<svg width="18" height="16" viewBox="0 0 18 16" fill="none" xmlns="http://www.w3.org/2000/svg">
<path d="M12.2152 10.1128H11.4474L11.1752 9.87234C12.1278 8.85687 12.7012 7.53854 12.7012 6.10441C12.7012 2.90657 9.87275 0.314453 6.38333 0.314453C2.8939 0.314453 0.0654297 2.90657 0.0654297 6.10441C0.0654297 9.30225 2.8939 11.8944 6.38333 11.8944C7.94822 11.8944 9.38676 11.3688 10.4948 10.4959L10.7573 10.7453V11.449L15.6172 15.8939L17.0654 14.5667L12.2152 10.1128ZM6.38333 10.1128C3.96309 10.1128 2.0094 8.32241 2.0094 6.10441C2.0094 3.88641 3.96309 2.09598 6.38333 2.09598C8.80357 2.09598 10.7573 3.88641 10.7573 6.10441C10.7573 8.32241 8.80357 10.1128 6.38333 10.1128Z" fill="black" fill-opacity="0.5"/>
</svg>
